<?xml version="1.0" encoding="utf-8"?>
<!-- Generator: Adobe Illustrator 26.0.3, SVG Export Plug-In . SVG Version: 6.00 Build 0)  -->
<svg version="1.1" id="Layer_1" xmlns="http://www.w3.org/2000/svg" xmlns:xlink="http://www.w3.org/1999/xlink" x="0px" y="0px"
	 viewBox="0 0 1200 1200" style="enable-background:new 0 0 1200 1200;" xml:space="preserve">
<style type="text/css">
	.st0{fill:#FFFFFF;}
	.st1{fill:#F69322;}
</style>
<rect x="143.25" y="489.58" class="st0" width="960" height="193.5"/>
<g>
	<g>
		<g>
			<path class="st1" d="M608.72,579.4c-0.87,1.16-0.47,2.44-0.47,3.63c-0.03,14.99-0.02,29.97-0.03,44.96
				c0,5.38-0.18,5.55-5.38,5.57c-3.75,0.01-7.5-0.12-11.24,0.05c-3.26,0.14-4.49-1.32-4.46-4.44c0.07-6.49,0.02-12.99,0.02-19.48
				c0-21.61-0.01-43.21-0.01-64.82c0-6.27,0.16-6.42,6.25-6.43c1.12,0,2.29,0.19,3.37-0.04c7.79-1.61,12.04,2.13,15.97,8.62
				c8.89,14.68,18.66,28.83,28.06,43.21c0.61,0.94,1.13,1.93,2.18,2.57c1.35-1.05,0.72-2.51,0.72-3.78
				c0.05-15.24,0.17-30.47,0.01-45.71c-0.04-3.88,1.45-5.1,5.07-4.92c3.86,0.18,7.75,0.13,11.62,0.02c3.18-0.09,4.49,1.24,4.47,4.46
				c-0.09,10.74-0.01,21.48,0,32.22c0,17.61,0,35.22-0.01,52.83c0,5.17-0.46,5.63-5.5,5.64c-3.25,0.01-6.52-0.25-9.74,0.07
				c-3.46,0.35-5.34-1.08-7.16-3.9c-10.32-16-20.83-31.87-31.28-47.78C610.51,580.98,610.2,579.67,608.72,579.4z"/>
		</g>
		<g>
			<path class="st1" d="M823.17,600.58c2-4.83,2.58-9.79,3.76-14.58c1.38-5.56,2.57-11.17,3.75-16.78c0.46-2.19,1.51-3.17,3.84-3.02
				c2.49,0.17,5,0.12,7.49,0.01c2.66-0.12,3.71,0.92,3.12,3.58c-1.21,5.48-2.3,10.98-3.54,16.44c-3.31,14.58-6.75,29.13-9.93,43.74
				c-0.55,2.52-1.57,3.22-3.96,3.28c-10.25,0.26-10.24,0.32-13.05-9.46c-2.44-8.5-4.88-17-7.34-25.49
				c-0.17-0.57-0.52-1.09-1.04-2.13c-2.31,5.38-3.26,10.66-4.76,15.75c-1.76,5.97-3.34,11.99-4.94,18.01
				c-0.64,2.4-1.97,3.58-4.57,3.31c-1.61-0.17-3.25-0.03-4.87-0.04c-5.52-0.03-5.36-0.07-6.51-5.29
				c-3.19-14.61-6.52-29.2-9.82-43.79c-1.07-4.74-2.16-9.47-3.34-14.19c-0.61-2.44,0.34-3.57,2.72-3.69c1-0.05,2-0.02,3-0.02
				c8.49-0.01,8.44,0,10.17,8.24c1.58,7.56,3.25,15.11,4.96,22.65c0.26,1.17,0.34,3.03,1.55,3.17c1.71,0.19,1.28-1.83,1.59-2.86
				c2.74-9.32,5.42-18.66,7.97-28.04c0.62-2.28,1.61-3.18,4.1-3.2c9.19-0.07,9.08-0.14,11.42,8.85c2,7.71,4.3,15.35,6.49,23.01
				C821.67,598.87,821.82,599.78,823.17,600.58z"/>
		</g>
		<g>
			<path class="st1" d="M247.72,595.34c-0.01,10.74,0.01,21.48-0.01,32.22c-0.01,5.54-0.52,6.01-5.9,6
				c-3.37-0.01-6.75,0.02-10.12,0.01c-4.91-0.01-5.42-0.46-5.43-5.3c-0.03-13.11-0.01-26.23-0.01-39.34c0-8.62-0.1-17.24,0.06-25.85
				c0.06-3.24-0.64-4.92-4.33-4.46c-2.58,0.32-5.25-0.06-7.86,0.08c-2.85,0.16-4.22-1.01-4.21-3.86c0.02-4.25,0.02-8.49,0.02-12.74
				c0-2.47,1.19-3.64,3.69-3.64c15.62,0.02,31.24,0.01,46.86,0.01c2.73,0,4.13,1.12,4.01,4.08c-0.16,3.99-0.1,7.99-0.03,11.99
				c0.06,3.03-1.31,4.3-4.33,4.16c-2.87-0.13-5.76,0.14-8.62-0.08c-2.91-0.22-3.91,0.76-3.87,3.75
				C247.82,573.36,247.73,584.35,247.72,595.34z"/>
		</g>
		<g>
			<g>
				<path class="st1" d="M852.18,599.94c-0.08-19.67,15.26-35.11,34.95-35.16c18.73-0.05,34.33,15.65,34.4,34.63
					c0.07,19.77-14.94,35.14-34.38,35.22C867.63,634.71,852.26,619.46,852.18,599.94z M906.67,599.76
					c-0.01-11.67-8.46-20.62-19.55-20.71c-11.72-0.09-20.09,8.59-20.08,20.83c0.01,11.95,8.3,20.38,20.04,20.37
					C898.37,620.23,906.69,611.53,906.67,599.76z"/>
			</g>
		</g>
		<g>
			<g>
				<path class="st1" d="M948.86,609.66c0,6.34-0.14,12.68,0.05,19.01c0.11,3.61-1.26,4.71-4.83,4.62
					c-11.23-0.28-9.79,1.26-9.83-9.73c-0.06-17.47-0.03-34.94-0.01-52.41c0-4.69,0.23-4.92,4.85-4.9
					c6.74,0.02,13.48-0.27,20.18,0.84c8.73,1.45,13.73,6.48,15.53,15.79c1.48,7.69-1.95,15.42-8.76,19.39
					c-1.89,1.1-2.67,1.9-1.35,4.23c4.04,7.14,7.77,14.45,11.59,21.71c2.13,4.04,1.45,4.43-3.06,5.13
					c-7.97,1.22-12.74-1.57-15.55-9.17c-1.79-4.85-4.8-9.24-7.28-13.84c-0.17-0.31-0.41-0.59-0.61-0.88
					C949.48,609.51,949.17,609.58,948.86,609.66z M948.69,586.17c0.44,2.26-1.42,5.67,3.55,5.45c6.22-0.28,8.32-1.42,8.3-5.54
					c-0.03-3.99-2.46-5.49-8.33-5.68C947.29,580.23,949.22,583.8,948.69,586.17z"/>
			</g>
		</g>
		<g>
			<path class="st1" d="M1002.56,608.55c0,7.14-0.1,13.87,0.05,20.6c0.06,2.86-0.89,4.08-3.84,4.07
				c-13.28-0.05-11.06,1.26-11.13-10.67c-0.11-17.1,0.05-34.2-0.09-51.3c-0.03-3.58,0.84-5.21,4.79-5.09
				c12.46,0.35,9.93-1.32,10.23,9.99c0.07,2.71,0.01,5.42,0.01,8.44c2.09-0.4,2.7-1.89,3.56-2.96c3.51-4.36,6.99-8.75,10.39-13.2
				c1.25-1.63,2.69-2.37,4.79-2.25c2.99,0.16,5.99-0.03,8.99,0.08c1.26,0.04,2.87-0.69,3.67,0.99c0.76,1.58-0.48,2.5-1.32,3.57
				c-5.84,7.43-11.48,15.02-17.58,22.23c-2.23,2.63-1.78,4.3-0.08,6.69c6.7,9.43,13.3,18.93,19.85,28.46
				c0.76,1.11,2.47,2.14,1.42,3.88c-0.95,1.57-2.67,1.08-4.11,1.11c-11.4,0.26-11.38,0.23-17.86-9.2
				c-3.45-5.02-7.01-9.97-10.54-14.94C1003.63,608.89,1003.33,608.87,1002.56,608.55z"/>
		</g>
		<g>
			<path class="st1" d="M347.52,611.7c-4.2,6.28-8.29,12.05-11.97,18.07c-1.67,2.74-3.62,3.76-6.7,3.49
				c-2.48-0.22-4.99,0.04-7.49-0.04c-3.43-0.12-4.09-1.3-2.23-4.16c5.82-8.98,11.56-18.01,17.66-26.79
				c1.96-2.82,1.63-4.72-0.12-7.29c-5.45-8.03-10.7-16.19-16.02-24.31c-0.66-1.01-1.64-1.98-0.9-3.38c0.76-1.43,2.15-1.01,3.34-1.04
				c11.22-0.26,11.23-0.26,17.45,9.04c1.73,2.58,3.48,5.16,5.08,7.83c1.28,2.12,2.13,2.69,3.71,0.1c2.97-4.89,6.34-9.53,9.38-14.38
				c1.2-1.91,2.57-2.78,4.85-2.64c2.86,0.17,5.74,0.01,8.61,0.05c1.08,0.01,2.34-0.32,3.04,0.9c0.75,1.31,0.01,2.31-0.71,3.4
				c-5.37,8.08-10.59,16.25-16.09,24.24c-1.94,2.82-2.19,4.84-0.06,7.85c5.94,8.43,11.46,17.17,17.07,25.83
				c0.69,1.06,2.11,2.1,1.16,3.65c-0.87,1.42-2.41,1.04-3.75,1.07c-11.17,0.21-11.13,0.18-16.99-9.04
				C353.26,620.09,350.5,616.14,347.52,611.7z"/>
		</g>
		<g>
			<path class="st1" d="M273.92,599.69c0-9.61,0.08-19.22-0.04-28.82c-0.05-3.54,1.25-4.79,4.87-4.7
				c9.61,0.22,19.23,0.18,28.84,0.05c2.82-0.04,4.12,0.68,4.09,3.73c-0.11,12.9,1.49,10.32-10.27,10.63c-3.12,0.08-6.25,0.13-9.36,0
				c-2.46-0.11-3.61,0.55-3.51,3.31c0.26,7.54-0.76,6.06,6.08,6.19c4.62,0.09,9.24,0.09,13.86,0c2.23-0.04,3.2,0.85,3.18,3.07
				c-0.14,13.37,1.87,10.79-10.15,11.05c-3.37,0.07-6.74,0.11-10.11,0.03c-2.06-0.05-2.98,0.67-2.82,2.82
				c0.27,3.71-1.46,8.37,0.67,10.89c2.08,2.46,6.82,0.63,10.38,0.81c2.86,0.15,5.75,0.14,8.61,0.01c2.44-0.11,3.44,1.01,3.42,3.3
				c-0.11,13.09,1.79,11.03-10.16,11.16c-7.74,0.09-15.48-0.06-23.22,0.07c-3.21,0.06-4.46-1.16-4.42-4.4
				c0.12-9.73,0.04-19.46,0.04-29.2C273.89,599.69,273.91,599.69,273.92,599.69z"/>
		</g>
		<g>
			<path class="st1" d="M496.29,599.72c0-9.74,0.09-19.47-0.04-29.21c-0.04-3.23,1.07-4.39,4.36-4.33
				c9.86,0.17,19.73,0.12,29.6,0.04c2.72-0.02,3.96,1.03,3.83,3.74c-0.05,1,0.03,2,0.03,2.99c0,7.92,1.05,7.57-7.73,7.62
				c-4,0.02-7.99,0.06-11.99-0.05c-2.33-0.06-3.36,0.77-3.49,3.21c-0.32,6.17-0.29,6.31,5.78,6.33c4.62,0.02,9.24,0.07,13.86-0.03
				c2.36-0.05,3.29,0.88,3.53,3.23c1.13,10.77,1.02,10.95-9.66,10.95c-3.37,0-6.75,0.12-10.11,0.03c-2.37-0.06-3.46,0.81-3.38,3.26
				c0.1,2.74,0.1,5.49-0.01,8.24c-0.09,2.27,0.84,3.08,3.09,3.04c5.37-0.1,10.74,0.09,16.11-0.07c2.96-0.09,4.05,1.16,4.02,3.96
				c-0.11,11.91,1.34,10.44-9.83,10.54c-7.87,0.07-15.74-0.09-23.6,0.05c-3.21,0.06-4.46-1.08-4.42-4.35
				C496.37,619.19,496.28,609.46,496.29,599.72z"/>
		</g>
		<g>
			<path class="st1" d="M682.96,599.74c-0.01-9.74,0.09-19.48-0.06-29.21c-0.05-3.27,1.13-4.39,4.37-4.35
				c9.87,0.15,19.74,0.12,29.6,0.02c2.71-0.03,3.7,0.81,3.73,3.64c0.12,10.73,0.22,10.73-10.57,10.72c-2.75,0-5.5,0.11-8.24-0.05
				c-2.95-0.17-4.23,0.64-4.12,3.98c0.23,6.55-0.39,5.52,5.62,5.59c4.62,0.05,9.25,0.14,13.86-0.03c2.68-0.09,3.56,0.99,3.41,3.52
				c-0.14,2.36-0.16,4.75,0.01,7.11c0.19,2.64-0.96,3.56-3.48,3.53c-5.25-0.08-10.49,0.05-15.74-0.06
				c-2.67-0.06-3.97,0.76-3.66,3.66c0.37,3.45-1.41,7.85,0.71,10.14c2.18,2.34,6.63,0.6,10.07,0.79c2.87,0.15,5.75,0.14,8.62,0.02
				c2.63-0.11,3.51,1.06,3.46,3.59c-0.28,12.86,1.94,10.67-10.42,10.84c-7.62,0.1-15.24-0.06-22.86,0.09
				c-3.2,0.06-4.43-0.99-4.38-4.32C683.07,619.22,682.96,609.48,682.96,599.74z"/>
		</g>
		<g>
			<path class="st1" d="M391.74,606.81c0-7.49-0.07-14.99,0.03-22.48c0.04-2.88-1.03-3.99-3.97-3.92c-9.48,0.22-7.56-0.16-7.69-7.96
				c-0.1-6.21-0.04-6.21,6.1-6.2c9.37,0.01,18.75,0.08,28.12-0.02c2.88-0.03,4.23,1.03,4.03,3.93c-0.02,0.25,0,0.5,0,0.75
				c0.14,8.99,0.15,9.11-8.88,9.52c-2.84,0.13-2.83,1.67-2.83,3.68c0.02,14.24,0.02,28.48,0.01,42.72c0,6.27-0.11,6.35-6.16,6.38
				c-10.88,0.05-8.57,0.35-8.75-8.77C391.65,618.55,391.75,612.68,391.74,606.81z"/>
		</g>
		<g>
			<path class="st1" d="M752.04,606.58c0,7.49-0.11,14.99,0.05,22.48c0.07,3.13-1.15,4.17-4.18,4.16
				c-13.17-0.05-10.7,1.09-10.83-10.57c-0.14-12.86-0.1-25.73,0.02-38.59c0.03-2.78-0.84-3.69-3.63-3.65
				c-8.7,0.14-7.78,0.57-7.86-7.89c-0.06-6.31-0.02-6.31,6.44-6.3c9.12,0,18.25,0.11,27.37-0.05c3.41-0.06,4.61,1.1,4.58,4.57
				c-0.07,9.31,0.07,9.37-8.73,9.67c-2.38,0.08-3.29,0.87-3.26,3.32C752.11,591.35,752.04,598.96,752.04,606.58z"/>
		</g>
		<g>
			<path class="st1" d="M453.84,599.86c0-9.23-0.03-18.47,0.01-27.7c0.03-5.86,0.14-5.92,5.83-5.93c1,0,2,0,3,0.01
				c5.99,0.02,6.01,0.02,6.01,6.19c0.01,13.85,0,27.7,0.01,41.55c0,4.77,0.01,4.77,4.95,4.78c3.12,0,6.25,0.09,9.36-0.04
				c2.5-0.11,3.75,0.73,3.64,3.39c-0.11,2.62-0.1,5.24-0.01,7.86c0.08,2.25-0.98,3.22-3.12,3.22c-8.74,0.01-17.48,0.01-26.22,0.04
				c-2.89,0.01-3.49-1.72-3.48-4.17C453.87,619.33,453.84,609.59,453.84,599.86z"/>
		</g>
		<g>
			<path class="st1" d="M440.19,599.52c0,9.85-0.08,19.7,0.05,29.55c0.04,3.06-0.98,4.23-4.1,4.18
				c-11.88-0.19-10.51,1.36-10.55-10.21c-0.05-17.21-0.02-34.41,0-51.62c0.01-5.05,0.13-5.17,4.94-5.17
				c11.57,0.02,9.5-1.26,9.64,9.69C440.28,583.81,440.19,591.66,440.19,599.52z"/>
		</g>
	</g>
</g>
</svg>
